<?xml version="1.0" encoding="UTF-8"?><svg id="a" xmlns="http://www.w3.org/2000/svg" width="512" height="512" viewBox="0 0 512 512"><path d="m450.557,323.254h-108.092c-10.608,0-19.214,8.599-19.214,19.21s8.606,19.21,19.214,19.21h62.082l-59.034,59.036c-33.964,33.964-79.115,52.676-127.139,52.69h-.042c-48.003,0-93.14-18.694-127.076-52.641-35.659-35.652-54.782-85.043-52.467-135.515.481-10.597-7.713-19.583-18.314-20.068-10.629-.495-19.583,7.713-20.072,18.311-2.804,61.233,20.406,121.173,63.681,164.44,41.203,41.203,95.978,63.894,154.247,63.894h.056c58.276-.014,113.072-22.722,154.296-63.943l58.66-58.664v61.339c0,10.611,8.606,19.21,19.214,19.21s19.214-8.599,19.214-19.21v-108.089c0-10.611-8.606-19.21-19.214-19.21Z" fill="#fff" stroke-width="0"/><path d="m447.921,64.094C406.703,22.877,351.9.179,293.596.179s-113.107,22.697-154.324,63.915l-58.618,58.62v-61.277c0-10.611-8.606-19.21-19.214-19.21s-19.214,8.599-19.214,19.21v105.674c-.647,5.624,1.101,11.473,5.412,15.788.041.041.089.066.13.106,3.485,3.533,8.319,5.731,13.672,5.731h108.086c10.608,0,19.214-8.599,19.214-19.21s-8.606-19.21-19.214-19.21h-62.136l59.054-59.054c33.957-33.961,79.115-52.662,127.153-52.662s93.196,18.701,127.153,52.662c33.95,33.947,52.648,79.087,52.648,127.104,0,3.302-.077,6.598-.3,9.854-.725,10.583,7.274,19.751,17.861,20.469.446.031.886.045,1.325.045,10.015,0,18.454-7.766,19.144-17.906.279-4.115.398-8.289.398-12.463,0-58.28-22.701-113.069-63.904-154.272Z" fill="#fff" stroke-width="0"/></svg>