<?xml version="1.0" encoding="UTF-8"?><svg id="a" xmlns="http://www.w3.org/2000/svg" width="512" height="512" viewBox="0 0 512 512"><path d="m412.948.319H99.055c-25.609,0-46.45,20.841-46.45,46.45v418.42c0,16.75,8.657,31.771,23.141,40.177,7.291,4.231,15.293,6.343,23.309,6.343,7.911,0,15.83-2.063,23.051-6.196l129.906-74.269c2.447-1.401,5.493-1.408,7.939-.021l130.163,73.453c14.547,8.197,31.833,8.092,46.255-.342,14.415-8.413,23.03-23.413,23.03-40.107V46.769c0-25.609-20.841-46.45-46.45-46.45Zm8.044,463.908c0,4.015-2.495,6.078-3.987,6.949-1.499.872-4.517,2.042-8.016.056l-130.163-73.453c-14.171-8.009-31.764-7.953-45.878.132l-129.899,74.269c-3.506,2-6.531.836-8.03-.028-1.499-.872-4.008-2.928-4.008-6.963V46.769c0-4.44,3.604-8.043,8.044-8.043h313.894c4.44,0,8.044,3.604,8.044,8.043v417.458Z" fill="#fff" stroke-width="0"/><path d="m353.185,180.404l-51.406-13.069-28.313-44.854c-3.806-6.029-10.337-9.626-17.461-9.626s-13.662,3.597-17.468,9.626l-28.32,44.854-51.406,13.069c-6.915,1.756-12.351,6.852-14.554,13.634-2.203,6.782-.795,14.108,3.764,19.58l33.904,40.797-3.457,52.933c-.46,7.117,2.705,13.857,8.469,18.046,5.771,4.189,13.153,5.109,19.789,2.481l49.273-19.642,49.28,19.642c2.488.99,5.081,1.478,7.667,1.478,4.28,0,8.511-1.345,12.115-3.959,5.764-4.189,8.929-10.929,8.469-18.046l-3.45-52.933,33.904-40.797c4.559-5.485,5.967-12.804,3.757-19.586-2.203-6.775-7.646-11.871-14.554-13.627Z" fill="#fff" stroke-width="0"/></svg>